<svg width="15" height="16" viewBox="0 0 15 16" fill="none" xmlns="http://www.w3.org/2000/svg">
<path d="M2.19676 13.1709C1.49928 12.4753 0.946158 11.6486 0.569167 10.7385C0.192176 9.82841 -0.00124976 8.85277 6.07612e-06 7.86768C6.07612e-06 3.72543 3.35776 0.367676 7.50001 0.367676C11.6423 0.367676 15 3.72543 15 7.86768C15 12.0099 11.6423 15.3677 7.50001 15.3677H6.07612e-06L2.19676 13.1709ZM4.50001 8.61768C4.50001 9.41333 4.81608 10.1764 5.37869 10.739C5.94129 11.3016 6.70436 11.6177 7.50001 11.6177C8.29566 11.6177 9.05872 11.3016 9.62133 10.739C10.1839 10.1764 10.5 9.41333 10.5 8.61768H4.50001Z" fill="#607B96"/>
</svg>
