<svg width="16" height="14" viewBox="0 0 16 14" fill="none" xmlns="http://www.w3.org/2000/svg">
<path d="M14.5802 4.49392V13.1606C14.5802 13.2195 14.5568 13.2761 14.5151 13.3177C14.4734 13.3594 14.4169 13.3828 14.358 13.3828H1.35796C1.29903 13.3828 1.2425 13.3594 1.20083 13.3177C1.15916 13.2761 1.13574 13.2195 1.13574 13.1606V4.2717H14.358C14.4169 4.2717 14.4734 4.29511 14.5151 4.33679C14.5568 4.37846 14.5802 4.43499 14.5802 4.49392ZM6.50541 1.38281L6.94986 1.82726H1.13574V1.60503C1.13574 1.5461 1.15915 1.48957 1.20083 1.4479C1.2425 1.40623 1.29903 1.38281 1.35796 1.38281H6.50541Z" fill="#3A49A4" stroke="black"/>
</svg>
