<svg width="22" height="17" viewBox="0 0 22 17" fill="none" xmlns="http://www.w3.org/2000/svg">
<path d="M16 0.87793C17.5913 0.87793 19.1174 1.51007 20.2426 2.63529C21.3679 3.76051 22 5.28663 22 6.87793V10.8779C22 12.4692 21.3679 13.9954 20.2426 15.1206C19.1174 16.2458 17.5913 16.8779 16 16.8779H6C4.4087 16.8779 2.88258 16.2458 1.75736 15.1206C0.632141 13.9954 0 12.4692 0 10.8779V6.87793C0 5.28663 0.632141 3.76051 1.75736 2.63529C2.88258 1.51007 4.4087 0.87793 6 0.87793H16ZM9 5.87793H7V7.87793H5V9.87793H6.999L7 11.8779H9L8.999 9.87793H11V7.87793H9V5.87793ZM17 9.87793H15V11.8779H17V9.87793ZM15 5.87793H13V7.87793H15V5.87793Z" fill="#607B96"/>
</svg>
