<svg width="20" height="19" viewBox="0 0 20 19" fill="none" xmlns="http://www.w3.org/2000/svg">
<path d="M1 0.651855H19C19.2652 0.651855 19.5196 0.757212 19.7071 0.944749C19.8946 1.13228 20 1.38664 20 1.65186V17.6519C20 17.9171 19.8946 18.1714 19.7071 18.359C19.5196 18.5465 19.2652 18.6519 19 18.6519H1C0.734784 18.6519 0.48043 18.5465 0.292893 18.359C0.105357 18.1714 0 17.9171 0 17.6519V1.65186C0 1.38664 0.105357 1.13228 0.292893 0.944749C0.48043 0.757212 0.734784 0.651855 1 0.651855ZM10 12.6519V14.6519H16V12.6519H10ZM6.414 9.65186L3.586 12.4799L5 13.8949L9.243 9.65186L5 5.40886L3.586 6.82386L6.414 9.65186Z" fill="#607B96"/>
</svg>
